<?xml version="1.0" encoding="UTF-8"?>
<svg width="512px" height="512px" viewBox="0 0 512 512" version="1.1" xmlns="http://www.w3.org/2000/svg" xmlns:xlink="http://www.w3.org/1999/xlink">
    <!-- Generator: Sketch 63.1 (92452) - https://sketch.com -->
    <title>编组 5</title>
    <desc>Created with Sketch.</desc>
    <g id="页面-1" stroke="none" stroke-width="1" fill="none" fill-rule="evenodd">
        <g id="512*512" transform="translate(-89.000000, -77.000000)">
            <g id="编组-5" transform="translate(89.000000, 77.000000)">
                <rect id="矩形" stroke="#F7FDFF" stroke-width="16.9958506" fill="#64DCFA" x="8.49792531" y="8.49792531" width="495.004149" height="495.004149" rx="31.8672199"></rect>
                <path d="M298.16071,342.041494 C301.802211,342.062718 303.783616,340.904738 304.104925,338.567259 C304.426234,336.229781 304.372683,333.849753 303.944271,331.427176 L274.062538,185.563874 C272.563096,177.165524 267.315049,172.939767 258.318399,172.886604 C249.75016,172.835973 244.073701,176.513166 241.289024,183.918183 L191.164826,317.450494 L139.755392,183.318203 C136.970715,175.880276 131.187153,172.135364 122.404708,172.082988 C113.622264,172.03157 108.481328,176.195936 106.981878,184.576566 L76.7788361,332.746866 C75.7078062,338.064637 77.528557,340.737446 82.2410884,340.766114 C85.454178,340.78428 87.5426863,340.070607 88.5066131,338.624276 C89.47054,337.177945 90.1667094,335.165354 90.5951214,332.586504 L119.512928,189.732709 C120.369752,185.8657 121.601436,183.936942 123.207981,183.946435 C124.814526,183.955929 126.367519,185.901142 127.866961,189.782075 C136.863612,214.197026 146.020917,238.169253 155.338877,261.698753 C164.656837,285.228254 174.135451,309.202379 183.77472,333.621128 C185.059956,337.016786 186.184537,339.161138 187.148464,340.054184 C188.112391,340.94723 189.236972,341.39755 190.522208,341.405145 C192.02165,341.414005 193.253334,340.89694 194.217261,339.85395 C195.181188,338.81096 196.305769,336.760567 197.591005,333.702771 L252.856146,190.278653 C253.71297,187.702334 254.623346,186.134684 255.587272,185.575703 C256.551199,185.016722 257.461575,185.183438 258.318399,186.075851 C259.175222,186.968264 260.032046,188.425354 260.88887,190.447122 C261.745694,192.468889 262.495415,194.772363 263.138033,197.357542 C263.566445,199.134773 263.994857,201.033007 264.423269,203.052243 C264.851681,205.071479 265.280093,207.131049 265.708505,209.230953 C266.136917,211.330857 268.386079,222.637692 272.455993,243.151459 C276.525906,263.665225 282.523674,293.870565 290.449295,333.767477 C291.091913,336.836665 292.002288,338.979752 293.180421,340.196736 C294.358554,341.41372 296.01865,342.028542 298.16071,342.041494 Z" id="M备份" stroke="#FFFFFF" stroke-width="4.24896266" fill="#FFFFFF" fill-rule="nonzero"></path>
                <polyline id="路径-2备份" stroke="#FFFFFF" stroke-width="16.9958506" stroke-linecap="round" stroke-linejoin="round" points="401.35025 179.339826 401.35025 332.302482 367.597635 308.813635"></polyline>
                <polyline id="路径-2备份-2" stroke="#FFFFFF" stroke-width="16.9958506" stroke-linecap="round" stroke-linejoin="round" points="401.35025 179.339826 401.35025 332.302482 435.102865 309.174138"></polyline>
            </g>
        </g>
    </g>
</svg>